<svg version="1.0" xmlns="http://www.w3.org/2000/svg" width="512pt" height="512pt" viewBox="0 0 512 512" preserveAspectRatio="xMidYMid meet">

<g transform="translate(0,512) scale(0.1,-0.1)" fill="#f5f5f5">
<path d="M34 5086 l-34 -34 0 -2492 0 -2492 34 -34 c29 -29 41 -34 82 -34 30
0 61 7 79 18 114 70 3527 2431 3553 2458 27 29 32 41 32 84 0 43 -5 55 -32 84
-26 28 -3439 2388 -3553 2458 -18 11 -49 18 -78 18 -42 0 -54 -5 -83 -34z
m1814 -1434 c864 -596 1572 -1087 1572 -1092 0 -6 -3091 -2144 -3158 -2184 -9
-6 -12 434 -12 2184 0 1750 3 2190 13 2184 6 -4 720 -496 1585 -1092z"/>
<path d="M348 3438 c6 -7 72 -56 146 -108 78 -55 138 -103 141 -115 7 -29 165
-1329 165 -1357 0 -21 -23 -32 -226 -113 -124 -49 -228 -93 -231 -98 -3 -4 21
-6 54 -2 32 3 222 17 423 30 547 38 674 61 875 160 219 107 347 252 414 468
40 130 45 352 11 492 -7 28 -32 91 -56 142 -88 185 -263 317 -484 367 -51 12
-1185 146 -1231 146 -8 0 -8 -4 -1 -12z m1001 -519 c103 -212 20 -466 -202
-618 l-47 -32 5 38 c5 32 84 781 85 801 1 21 132 -135 159 -189z"/>
</g>
</svg>
